<svg xmlns="http://www.w3.org/2000/svg" viewBox="0 0 96 96" role="img" aria-label="Roadmap Locked Mission">
  <defs>
    <radialGradient id="glow" cx="50%" cy="35%" r="70%">
      <stop offset="0%" stop-color="#68727c" stop-opacity=".24"/>
      <stop offset="64%" stop-color="#68727c" stop-opacity=".06"/>
      <stop offset="100%" stop-color="#050607" stop-opacity="0"/>
    </radialGradient>
    <linearGradient id="edge" x1="18" y1="10" x2="78" y2="86" gradientUnits="userSpaceOnUse">
      <stop offset="0%" stop-color="#2a3036"/>
      <stop offset="42%" stop-color="#68727c"/>
      <stop offset="100%" stop-color="#8b949e"/>
    </linearGradient>
  </defs>
  <path d="M48 6 L78 19 V50 C78 69 66 82 48 90 C30 82 18 69 18 50 V19 Z" fill="#070908" stroke="url(#edge)" stroke-width="2.8" stroke-linejoin="round"/>
  <path d="M48 13 L70 24 V49 C70 63 61 73 48 80 C35 73 26 63 26 49 V24 Z" fill="#050607" stroke="#151a1f" stroke-width="1"/>
  <path d="M48 13 L70 24 V49 C70 63 61 73 48 80 C35 73 26 63 26 49 V24 Z" fill="url(#glow)"/>
  <g><rect x="31" y="43" width="34" height="28" rx="7" fill="none" stroke="#68727c" stroke-width="5"/><path d="M38 43 V34 C38 25 58 25 58 34 V43" fill="none" stroke="#8b949e" stroke-width="5" stroke-linecap="round"/><circle cx="48" cy="57" r="3" fill="#8b949e"/><path d="M48 59 V64" stroke="#8b949e" stroke-width="3" stroke-linecap="round"/></g>
</svg>