<svg xmlns="http://www.w3.org/2000/svg" viewBox="0 0 96 96" role="img" aria-label="Mission Debrief">
  <defs>
    <radialGradient id="glow" cx="50%" cy="35%" r="70%">
      <stop offset="0%" stop-color="#5b9cf6" stop-opacity=".24"/>
      <stop offset="64%" stop-color="#5b9cf6" stop-opacity=".06"/>
      <stop offset="100%" stop-color="#050607" stop-opacity="0"/>
    </radialGradient>
    <linearGradient id="edge" x1="18" y1="10" x2="78" y2="86" gradientUnits="userSpaceOnUse">
      <stop offset="0%" stop-color="#2a3036"/>
      <stop offset="42%" stop-color="#5b9cf6"/>
      <stop offset="100%" stop-color="#d4a017"/>
    </linearGradient>
  </defs>
  <path d="M48 6 L78 19 V50 C78 69 66 82 48 90 C30 82 18 69 18 50 V19 Z" fill="#070908" stroke="url(#edge)" stroke-width="2.8" stroke-linejoin="round"/>
  <path d="M48 13 L70 24 V49 C70 63 61 73 48 80 C35 73 26 63 26 49 V24 Z" fill="#050607" stroke="#151a1f" stroke-width="1"/>
  <path d="M48 13 L70 24 V49 C70 63 61 73 48 80 C35 73 26 63 26 49 V24 Z" fill="url(#glow)"/>
  <g><path d="M31 27 H60 L69 36 V70 H31 Z" fill="none" stroke="#5b9cf6" stroke-width="4" stroke-linejoin="round"/><path d="M60 27 V37 H69" fill="none" stroke="#7ec845" stroke-width="4" stroke-linejoin="round"/><path d="M40 45 H58 M40 54 H61 M40 63 H52" stroke="#7ec845" stroke-width="4" stroke-linecap="round"/><circle cx="66" cy="66" r="8" fill="none" stroke="#d4a017" stroke-width="3"/><path d="M72 72 L78 78" stroke="#d4a017" stroke-width="4" stroke-linecap="round"/></g>
</svg>