<svg xmlns="http://www.w3.org/2000/svg" viewBox="0 0 96 96" role="img" aria-label="Roadmap Cycle Marker">
  <defs>
    <radialGradient id="glow" cx="50%" cy="35%" r="70%">
      <stop offset="0%" stop-color="#7ec845" stop-opacity=".24"/>
      <stop offset="64%" stop-color="#7ec845" stop-opacity=".06"/>
      <stop offset="100%" stop-color="#050607" stop-opacity="0"/>
    </radialGradient>
    <linearGradient id="edge" x1="18" y1="10" x2="78" y2="86" gradientUnits="userSpaceOnUse">
      <stop offset="0%" stop-color="#2a3036"/>
      <stop offset="42%" stop-color="#7ec845"/>
      <stop offset="100%" stop-color="#d4a017"/>
    </linearGradient>
  </defs>
  <path d="M48 6 L78 19 V50 C78 69 66 82 48 90 C30 82 18 69 18 50 V19 Z" fill="#070908" stroke="url(#edge)" stroke-width="2.8" stroke-linejoin="round"/>
  <path d="M48 13 L70 24 V49 C70 63 61 73 48 80 C35 73 26 63 26 49 V24 Z" fill="#050607" stroke="#151a1f" stroke-width="1"/>
  <path d="M48 13 L70 24 V49 C70 63 61 73 48 80 C35 73 26 63 26 49 V24 Z" fill="url(#glow)"/>
  <g><path d="M31 42 C34 30 48 25 59 32 L65 37" fill="none" stroke="#7ec845" stroke-width="5" stroke-linecap="round"/><path d="M65 37 H54 V26" fill="none" stroke="#7ec845" stroke-width="5" stroke-linecap="round" stroke-linejoin="round"/><path d="M66 54 C63 67 48 72 37 64 L31 59" fill="none" stroke="#9b6df5" stroke-width="5" stroke-linecap="round"/><path d="M31 59 H42 V70" fill="none" stroke="#9b6df5" stroke-width="5" stroke-linecap="round" stroke-linejoin="round"/><text x="48" y="53" text-anchor="middle" fill="#d4a017" font-family="Arial, Helvetica, sans-serif" font-size="12" font-weight="950">8W</text></g>
</svg>