<svg xmlns="http://www.w3.org/2000/svg" viewBox="0 0 96 96" role="img" aria-label="Roadmap Previous Mission">
  <defs>
    <radialGradient id="glow" cx="50%" cy="35%" r="70%">
      <stop offset="0%" stop-color="#5f8f37" stop-opacity=".24"/>
      <stop offset="64%" stop-color="#5f8f37" stop-opacity=".06"/>
      <stop offset="100%" stop-color="#050607" stop-opacity="0"/>
    </radialGradient>
    <linearGradient id="edge" x1="18" y1="10" x2="78" y2="86" gradientUnits="userSpaceOnUse">
      <stop offset="0%" stop-color="#2a3036"/>
      <stop offset="42%" stop-color="#5f8f37"/>
      <stop offset="100%" stop-color="#a8b3bd"/>
    </linearGradient>
  </defs>
  <path d="M48 6 L78 19 V50 C78 69 66 82 48 90 C30 82 18 69 18 50 V19 Z" fill="#070908" stroke="url(#edge)" stroke-width="2.8" stroke-linejoin="round"/>
  <path d="M48 13 L70 24 V49 C70 63 61 73 48 80 C35 73 26 63 26 49 V24 Z" fill="#050607" stroke="#151a1f" stroke-width="1"/>
  <path d="M48 13 L70 24 V49 C70 63 61 73 48 80 C35 73 26 63 26 49 V24 Z" fill="url(#glow)"/>
  <g><path d="M27 49 L41 63 L70 34" fill="none" stroke="#7ec845" stroke-width="7" stroke-linecap="round" stroke-linejoin="round"/><circle cx="48" cy="48" r="25" fill="none" stroke="#5f8f37" stroke-width="4" opacity=".72"/><path d="M29 74 H67" stroke="#a8b3bd" stroke-width="4" stroke-linecap="round" opacity=".58"/></g>
</svg>